<?xml version="1.0" encoding="UTF-8"?>
<svg version="1.1" viewBox="0 0 2048 1323" width="198" height="128" xmlns="http://www.w3.org/2000/svg">
<path transform="translate(940,368)" d="m0 0h22l47 1 119 1 4 4-4 29-5 50-4 16-3 25-6 41-3 22-3 35-3 9-2 9-5 43-4 31-2 10-6 48-4 25-4 36-2 20-4 11-4 35-4 31-3 15-4 41-2 10-5 14-2 12v9l-1 8-3 3-12 1-4-4-5-26-4-15-5-40-6-39-3-30-2-19-5-19-6-47-9-70-7-43-5-38-6-42-8-67-6-53-5-26-7-47-1-13 3-5z" fill="#CA9944"/>
<path transform="translate(501,288)" d="m0 0h12l13 5 22 12 32 14 27 11 23 8 28 9 49 13 24 6 17 4 30 6 14 3 32 3 28 3 28 4 20 2 3 3 4 17 5 40 3 15 4 35 1 34-4 1-17-5-5-2-30-4-49-10-32-8-29-9-26-9-39-15-27-12-33-16-27-16-22-14-12-9-14-11-13-10-11-9-20-18-16-16-8-10-7-14 1-6 8-14 4-5z" fill="#C99843"/>
<path transform="translate(1557,287)" d="m0 0 9 2 10 9 5 8 2 5v12l-6 9-11 14-19 19-11 9-16 13-11 9-8 7-10 8-23 15-27 16-18 10-36 16-21 9-42 16-40 13-24 7-60 12-26 4-20 6-8 1-1-1v-14l3-30 6-41 5-36 2-13 3-6 5-3 36-5 33-4 35-3 15-3 27-6 39-9 20-4 24-7 18-5 29-9 36-14 20-8 19-9 20-11 7-5z" fill="#050404"/>
<path transform="translate(198,1178)" d="m0 0h800l99 1 53 1 321 4 147 1 241 3 3 5 1 11-3 4-117 1h-442l-538-1-247-3-187-2-124-3-7-1-2-3v-15z" fill="#030202"/>
<path transform="translate(1046,1239)" d="m0 0h151l596 1h117l14 1 1 1v11l-1 10-1 2h-61l-135-2h-455l-290 1-463 1h-325l-40-1-16-1-4-4v-17l1-2z" fill="#131212"/>
<path transform="translate(1020,94)" d="m0 0h21l22 3 17 5 17 9 10 8 9 10 10 15 9 19 10 30 1 8v16l-3 9-3 7-4 17-7 14-10 15-12 13-10 7-14 8-17 4-12 3-5 3-10 2-16-1-18-5-16-4-12-6-12-8-10-9-8-10-8-14-8-18-8-27-2-7v-7l4-15 4-13 4-15 11-20 10-13 13-13 17-10 17-6z" fill="#030202"/>
<path transform="translate(1121,1012)" d="m0 0 9 1 8 4 10 8 8 9 9 15 8 14 9 12 8 8 18 13 12 11 2 4v11l-4 8-7 6-12 8-16 4-10 2-8 3-11-1-24-7-29-14-27-16-14-7-7-2-31-1-13 1-21 10-24 14-24 13-16 5-16 3-8-1-13-2-16-1-10-3-6-4-6-8-5-11-1-7 2-8 9-8 14-8 13-11 8-8 7-11 4-10 6-12 8-11 9-6 12-7 7-1 10 2 26 10 11 9 6 6 25 11 7 1 16-1 11-4 22-12 18-12 17-8z" fill="#CA9944"/>
<path transform="translate(417,691)" d="m0 0h44l187 1 3 5v33l-2 15-7 17-3 9-10 13-11 13-7 7-13 10-15 10-23 10-12 2h-38l-10-3-22-9-20-12-11-9-9-9-10-13-6-12-8-24-2-20v-18l2-13z" fill="#CA9945"/>
<path transform="translate(1417,692)" d="m0 0h234l3 4v38l-3 10-4 9-6 17-11 16-11 14-7 7-19 14-16 8-14 5-13 2h-36l-12-3-21-10-14-10-11-9-11-11-9-12-8-13-9-24-3-15v-34z" fill="#030202"/>
<path transform="translate(928,1178)" d="m0 0h70l99 1 53 1 321 4 147 1 241 3 3 5 1 11-3 4-117 1h-442l-538-1-247-3-187-2-124-3-7-1-2-3v-15h1l1 8 2 2 5 1 177 2 213 1 157 2 92 2 144 1h476l206 1h183l2-3 1-7-28-1-264-1-291-2-183-5-93-2-69-1z" fill="#FBF9F6"/>
<path transform="translate(1844,1240)" d="m0 0h66l14 1 1 1v11l-1 10-1 2h-61l-135-2h-455l-290 1-463 1h-325l-40-1-16-1-4-4v-10l3 4 3 1h1775l4-5v-5l-11-2-64-1z" fill="#FCFBFA"/>
<path transform="translate(500,418)" d="m0 0 4 1 2 6v9l-2 13-6 11-2 13v81l1 27 2 24 5 13 2 16v27l-2 1h-73l-2-1 3-21 4-26 10-45 8-26 7-26 12-36 8-23 8-20 10-17z" fill="#C99844"/>
<path transform="translate(1562,413)" d="m0 0 6 1 11 25 11 37 15 47 10 33 7 27 11 49 3 22-1 5-4 1-38 1h-26l-5-1-1-2v-10l2-18 4-16 2-59v-72l-1-28-2-15-4-15-1-11z" fill="#030202"/>
<path transform="translate(1487,463)" d="m0 0h6l2 2-1 9-4 7-1 13v29l1 23 2 14 4 11 3 35 3 16 5 12 4 21v4l-3 1h-61l-2-4v-27l4-45 3-17 4-14 5-27 5-21 5-15 8-14 3-7z" fill="#060404"/>
<path transform="translate(578,464)" d="m0 0 6 3 4 6 5 12 6 16 8 28 8 46 6 76v8l-3 1h-62l-5-1 1-8 9-27 5-21 4-30 6-17 2-18v-38l-1-14v-21z" fill="#CA9944"/>
<path transform="translate(940,368)" d="m0 0h22l47 1 119 1 4 4-4 29-5 50-4 16-3 25-6 41-3 22-3 35-3 9-2 9-5 43-4 31-2 10-6 48-4 25-4 36-2 20-4 11-4 35-4 31-3 15-4 41-2 10-5 14-2 12v9l-1 8-3 3-12 1-4-4-5-26-4-15-5-40-6-39-3-30v-8h1l12 90 3 26 5 16 4 17v3l9 2 2-16 9-64 11-81 13-97 20-140 17-123 10-76 5-36h-52l-133-1z" fill="#FDFDFD"/>
<path transform="translate(1567,291)" d="m0 0 4 2 7 7 5 11v12l-6 9-11 14-19 19-11 9-16 13-11 9-8 7-10 8-23 15-27 16-18 10-36 16-21 9-42 16-40 13-24 7-60 12-26 4-20 6-8 1-1-1v-14l2-2 23-3 58-11 40-9 41-12 35-12 29-11 24-11 16-8 23-12 17-10 24-15 28-21 10-8 11-9 13-12 20-18 11-13 3-10v-7l-4-11z" fill="#FAF8F4"/>
<path transform="translate(501,288)" d="m0 0h12l13 5 22 12 32 14 27 11 23 8 28 9 49 13 24 6 17 4 30 6 14 3 32 3 28 3 28 4 20 2 3 3 4 17 5 40 3 15 4 35 1 34-4 1-17-5-5-2-30-4-49-10-32-8-29-9-26-9-39-15-27-12-33-16-27-16-22-14-12-9-14-11-13-10-11-9-20-18-16-16-8-10-7-14 1-6 3-3 2 11 7 11 11 12 20 20 8 7 14 12 18 14 23 16 21 13 15 9 29 15 25 11 20 8 28 10 24 8 41 12 34 8 46 9 37 6 9 1-5-31-6-42-5-40-3-16-31-3-23-5-48-4-20-3-12-4-14-2-23-5-8-3-17-3-19-5-10-3-25-7-30-10-29-11-26-11-18-8-19-10-13-6h-11l-8 7-5 4 2-4 5-5 5-4z" fill="#FCFCFC"/>
<path transform="translate(1121,1012)" d="m0 0 9 1 8 4 10 8 8 9 9 15 8 14 9 12 8 8 18 13 12 11 2 4v11l-4 8-7 6-12 8-16 4-10 2-8 3-11-1-24-7-29-14-27-16-14-7-7-2-31-1-13 1-21 10-24 14-24 13-16 5-16 3-8-1-13-2-16-1-10-3-6-4-6-8-5-11-1-7 2-8 9-8 4-1-5 5-6 7-1 7 3 8 8 8 12 6 17 4h11l17-2 14-5 20-10 18-10 16-9 22-10 24-7 27 9 20 10 17 10 18 10 15 8 14 5 15 1 14-1 14-3 14-7 13-10 5-6 1-5-7-8-23-16-10-9-8-11-9-16-8-14-10-13-8-6-4-2h-7l-22 8-3-1 15-7z" fill="#FDFDFD"/>
<path transform="translate(1020,94)" d="m0 0h21l22 3 17 5 17 9 10 8 9 10 10 15 9 19 10 30 1 8v16l-3 9-3 7-4 17-7 14-10 15-12 13-10 7-14 8-17 4-12 3-5 3-10 2-16-1-18-5-16-4-12-6-12-8-10-9-8-10-8-14-7-15 1-3 8 17 12 16 10 9 13 8 13 6 9 2 20 2h20l20-3 16-5 14-8 12-9 11-11 9-14 7-15 5-16 2-13v-22l-3-16-6-16-6-12-10-15-9-10-10-7-14-7-16-4-12-2-8-2-12-1-31 6-14 5-4 1 3-3 15-6z" fill="#FAF8F4"/>
<path transform="translate(1417,692)" d="m0 0h234l3 4v38l-3 10-4 9-6 17-11 16-11 14-7 7-19 14-16 8-14 5-13 2h-36l-12-3-21-10-14-10-11-9-11-11-9-12-8-13-9-24 1-3 8 20 7 14 8 10 13 13 14 10 15 8 15 5 15 3 17 1 17-2 19-5 16-7 14-9 13-11 10-11 7-10 6-12 7-21 3-18v-22l-1-3h-226z" fill="#FBFAF8"/>
<path transform="translate(500,418)" d="m0 0 4 1 2 6v9l-2 13-6 11-2 13v81l1 27 2 24 5 13 2 16v27l-2 1h-73l-2-1 3-21 4-26 10-45 5-16 1 4-7 28-9 43-2 14v9l8 1 54 2-1-2-6-72-3-50-1-22v-23l2-23 5-23h-1l-3 9-7 22-5 12-10 28-9 29-1-4 8-27 12-36 6-16 7-18 10-17z" fill="#FCFCFC"/>
<path transform="translate(600,692)" d="m0 0h48l3 5v33l-2 15-7 17-3 9-10 13-11 13-7 7-13 10-15 10-23 10-12 2h-38l-10-3-22-9-20-12-11-9-9-9-10-13-6-12-3-9 1-3 9 17 8 10 9 10 11 9 11 7 14 7 18 6 23 4 11-1 21-5 17-6 18-10 13-10 12-12 10-14 9-19 4-14 2-15 1-28h-41z" fill="#FDFDFD"/>
<path transform="translate(1562,413)" d="m0 0 6 1 11 25 11 37 15 47 10 33 7 27 11 49 3 22-1 5-4 1-38 1h-26l-5-1-1-2v-10l1 3 65-1-9-48-11-47-12-43-23-71-4-14-4-5 3 9 4 16 1 16v74l-1 73-1 11-5 5 2-12 2-59v-72l-1-28-2-15-4-15-1-11z" fill="#FAF7F3"/>
<path transform="translate(928,1178)" d="m0 0h70l99 1 53 1 321 4 147 1 170 2 57 1v2l-281-1-291-2-183-5-93-2-69-1z" fill="#F9F6F0"/>
<path transform="translate(578,464)" d="m0 0 6 3 4 6 5 12 6 16 8 28 8 46 6 76v8l-3 1h-62l-5-1 1-8 9-27 5-21 4-30h1v10l-4 27-5 19-6 22h55l-5-65-5-40-4-21-13-46v-2h-3l-1 36h-1l-2-27v-21z" fill="#FDFDFD"/>
<path transform="translate(1487,463)" d="m0 0h6l2 2-1 9-4 7-1 13v29l1 23 2 14 4 11 3 35 3 16 5 12 4 21v4l-3 1h-61l-2-4v-27l2-25h1l-1 47h56l-7-25-7-31-5-35-3-33v-45l3-10h-2l-3 10-3 2 2-6 4-9z" fill="#FAF8F4"/>
<path transform="translate(501,288)" d="m0 0h12l13 5 22 12 32 14 27 11 23 8 28 9 49 13 9 2 1 2h-8l-25-6-13-4-25-7-30-10-29-11-26-11-18-8-19-10-13-6h-11l-8 7-5 4 2-4 5-5 5-4z" fill="#FCFBFA"/>
<path transform="translate(954,514)" d="m0 0h1l7 53 4 29 5 32 7 53 10 69 9 72 2 11-1 4-4-16-6-47-9-70-7-43-5-38-6-42-7-58z" fill="#FDFDFD"/>
<path transform="translate(939,1013)" d="m0 0 13 2 26 10 11 9 6 6 25 11 7 1 16-1 11-4 15-8 2 1-22 12-13 3h-9l-12-3-23-11-15-10-16-8-17-7h-6l-19 10-9 10-8 14-1-3 9-15 6-7 19-11z" fill="#FDFDFD"/>
<path transform="translate(717,363)" d="m0 0 10 2 21 5 30 6 14 3 32 3 21 2 2 2-29-2-24-2-20-3-12-4-14-2-23-5-8-3z" fill="#FDFDFD"/>
<path transform="translate(484,452)" d="m0 0 1 3-4 13-5 12-10 28-9 29-1-4 8-27 12-36 6-16z" fill="#FCFBFA"/>
<path transform="translate(1570,555)" d="m0 0h1v55l-1 11-5 5 2-12 2-58z" fill="#FBFAF7"/>
<path transform="translate(1228,384)" d="m0 0h10v1l-39 6-26 3-7 1-2 5-2 6h-1l1-7 3-5 9-3 25-3z" fill="#F4ECDE"/>
<path transform="translate(1562,422)" d="m0 0 2 2 5 13 2 10v37l-2-1-1-28-2-15-4-15z" fill="#FAF8F3"/>
<path transform="translate(1020,94)" d="m0 0h12l-1 2-15 2-23 5-12 5-2-1 10-5 16-5z" fill="#F7F1E7"/>
<path transform="translate(921,203)" d="m0 0 2 2 2 8 3 7 3 17-1 4-7-24-2-7z" fill="#F2E9D8"/>
<path transform="translate(1469,496)" d="m0 0h1l-1 10-4 17-3 6-1-3 5-21z" fill="#F8F4EC"/>
<path transform="translate(1557,287)" d="m0 0h3v2l-12 4-9 5-2-1 10-7z" fill="#F7F2E8"/>
<path transform="translate(1228,384)" d="m0 0h10v1l-26 4 1-3z" fill="#F3EBDC"/>
<path transform="translate(1212,386)" d="m0 0m-7 1h7v2l-13 2h-8l2-2z" fill="#F7F1E7"/>
<path transform="translate(576,556)" d="m0 0h1l-1 10-4 6-1-3z" fill="#FDFDFD"/>
</svg>
