<?xml version="1.0" encoding="UTF-8"?>
<svg version="1.1" viewBox="0 0 2048 1365" width="540" height="360" xmlns="http://www.w3.org/2000/svg">
<path transform="translate(0)" d="m0 0h2048v1365h-2048z" fill="#fff"/>
<path transform="translate(1021,217)" d="m0 0 16 2 12 5 8 6 7 7 5 8 4 11 1 5v14l-3 9-5 6-10 5-15 4 4 3 6 4 8 7 7 10 5 11 3 10 33 4 33 6 30 8 37 12 37 15 26 12 32 16 46 26 17 9 25 10 16 4h10l13-3 16-8 17-11 7-4h2l-1 7-5 16-5 12-9 12-10 7-11 5-7 2 9 19 11 25 19 41 15 33 17 36 12 26 14 30 19 39 9 19 4 11h24l9 2 3 3-1 4-7 3h-9l-7 11-10 13-11 12-15 15-13 10-20 12-18 7-15 4-21 3h-49l-19-3-17-5-15-6-17-9-17-12-11-10-8-7-10-11-12-16-6-9h-12l-6-3-1-3 4-4 4-1h21l5-8 31-62 9-19 8-16 18-37 11-23 12-26 8-16 15-33 12-28 4-10-18-4-20-6-26-9-39-15-33-11-40-11-42-9-37-6-32-4-38-3-30-2v14l25 1 7 3 4 4 1 5-6 7-11 2h-20l-1 212-38 10-9 2-1-224h-22l-10-3-4-4v-7l4-5 6-2 26-1 1-14-52 4-45 5-46 7-40 8-40 10-45 14-59 21-27 10h-3l8 20 12 26 34 72 15 33 18 39 15 32 26 56h25l9 3 1 4-2 3-14 2-13 18-13 16-9 9-8 7-16 12-19 11-18 8-20 6-22 4h-36l-24-4-23-7-22-10-16-10-12-9-10-9-8-7-7-8-9-10-11-14-11-11v-3h15l18-1 15-33 17-36 18-39 13-28 15-33 19-41 11-24 17-38 2-6-16-8-10-8-7-8-7-12-5-14-4-12 1-4 12 12 14 9 16 6 5 1h24l16-4 16-6 30-15 22-12 33-17 28-13 23-10 30-12 36-12 30-8 25-5 30-4 9-1 7-19 9-13 12-9 5-3-2-2-18-5-6-4-6-8-2-13 3-16 4-9 6-9 8-7 14-7 6-2z" fill="#161616"/>
<path transform="translate(1352,548)" d="m0 0h2l-1 4-12 16-12 14-11 12-9 10-18 18-8 7-12 11-14 11-13 10-18 13-20 13-16 10-26 15-18 10-42 21-28 13-43 19-29 13-26 12-25 12-26 13-24 14-19 12-19 14-14 11-15 14-15 15-13 17-7 10-9 16-7 15-2 7 15-16 18-18 8-7 14-12 17-13 33-22 24-14 32-17 41-20 92-41 26-12 29-14 25-13 18-10 22-13 27-18 18-13 28-22 10-9 11-9 12-11 1 4-10 15-11 16-12 16-11 14-9 11-11 13-12 14-15 16-9 10-40 40-8 7-36 36-7 8-12 13-13 17-13 18-12 21-8 16-8 18-8 24-6 26-4 27-1 11-1 39 30-10 22-9 34-16 27-14 23-13 25-15 15-10 19-13 13-10 14-11 15-13 12-11 4-4h2v-2l7-6 7-8 7-7 9-11 10-12 11-16 4-6 5 1 25 9-2 7-12 17-10 13-9 11-9 10-7 8-10 10-1 2h-2v2h-2v2l-8 7-15 14-11 9-14 11-16 12-20 14-22 14-20 12-23 13-29 15-17 9-28 13-33 14-22 8-6-1-17-6-31-13-25-11-29-14-28-15-22-13-22-14-16-11-18-13-13-10-16-13-10-9-8-7-13-12-32-32-7-8-11-13-13-18-6-9v-3l20-7 9-4 4 2 11 15 10 13 12 14 7 8 2 3 3 1 2-10 11-30 11-24 12-22 10-16 10-14 10-13 13-15 20-20 22-18 22-15 21-12 23-11 29-11 29-8 92-21 37-10 37-12 30-12 20-9 30-15 24-14 14-9 12-8 17-12 16-12 14-12z" fill="#161616"/>
<path transform="translate(1412,508)" d="m0 0 4 2 15 33 13 28 14 30 13 27 13 28 17 35 15 33 12 26 12 27v3l-256 1 1-4 13-28 17-35 11-23 12-25 18-38 19-39 11-23 8-16 12-26z" fill="#fff"/>
<path transform="translate(632,506)" d="m0 0 3 3 16 32 11 23 14 30 16 34 15 34 7 15 15 32 18 41 13 28v2h-253l2-6 18-40 8-18 7-15 17-35 11-24 17-36 13-28 13-29 16-37z" fill="#fff"/>
</svg>
