<?xml version="1.0" encoding="UTF-8"?>
<svg version="1.1" viewBox="0 0 1192 992" width="298" height="248" xmlns="http://www.w3.org/2000/svg">
<path transform="translate(589,20)" d="m0 0h10l13 3 11 6 10 9 6 10 4 11v22l-5 9-7 5-10 4-12 2-1 3 5 5 11 7 8 8 8 16 5 13 2 2 24 1 4 2 21 2 6 2 16 3 30 8 40 13 22 9 30 13 29 14 18 10 29 15 22 13 23 11 22 8 14 4h16l19-7 19-12 6-4h3l-1 8-8 19-8 11-8 7-10 6-13 5 2 6 8 14 6 16 19 42 15 33 13 27 11 23 17 37 13 29 12 23 10 21 7 17 3 8 2 2 30 1 3 2-1 4-15 3-13 18-11 14-11 12-8 8-17 13-17 10-20 8-17 4-32 4-13 1h-10l-21-2-20-3-18-6-16-7-18-10-15-10-7-7-8-7-11-13-11-14-10-14-2-1-12-1-2-1 1-5 28-1 3-4 5-13 31-62 11-23 9-19 11-23 6-13 9-19 9-16 14-30 11-27 12-24 4-10 3-7v-5l-6-3-27-7-44-15-34-13-36-12-25-7-31-8-34-7-33-5-21-3-28-3-31-2-22-2h-5l-1 3v14l8 1 19 1 8 2 4 3v6l-3 5-2 1-9 1h-25l-1 224-5 3-20 4-15 5h-5l-1-1 1-29v-199l-3-5-1-1-28-1-6-2-1-7 6-7 5-2 25-2 3-3-1-8-3-6h-10l-82 8-41 6-34 6-45 10-26 7-46 14-33 12-20 7-25 9-12 4-1 5 5 13 11 25 11 23 14 30 11 23 11 24 8 18 7 15 13 27 16 36 12 25 10 23 5 10 3 2 29 1 2 1-1 4-12 1-5 4-7 11-14 17-7 8-7 7-8 7-12 10-21 12-19 9-13 5-15 4-26 4h-25l-26-4-24-7-22-9-21-12-16-12-14-12-18-22-10-11-8-10-1-4 1-1h31l3-10 8-16 14-29 12-29 6-14 16-32 11-25 11-26 7-14 11-23 8-17 7-17 15-34 5-7-1-4-8-5-10-5-10-8-7-7-6-10-7-21v-4l4 2 11 7 14 7 14 5h27l12-2 20-7 16-7 19-10 26-14 44-22 19-9 34-14 29-11 24-8 28-8 10-3 16-2 4-2 16-3 3-1 13-1h12l4-2 4-7 2-9 7-13 7-8 11-6 1-2v-6l-1-1-12-2-12-4-4-5-3-6-1-12 2-14 6-14 11-12 10-6 13-5zm-410 303-3 2-8 17-9 20-16 36-11 24-9 20-12 25-13 28-15 31-11 23-14 31-9 21-2 5v5l6 4h260l2-1-1-5-10-25-15-35-10-21-9-20-15-32-11-24-9-20-8-16-16-35-13-26-10-19-5-10zm823 3-3 4-8 16-12 25-8 16-14 29-7 14-9 20-8 16-7 16-10 19-14 30-8 16-13 28-6 12-9 20v6l3 2h267l2-2-1-7-11-26-14-32-9-17-10-23-14-28-9-20-8-16-17-36-9-20-12-25-13-28-6-9z" fill="#191919"/>
<path transform="translate(930,377)" d="m0 0h2l-2 5-13 14-7 8-9 9-9 11-15 15-8 7-12 11-10 9-17 13-16 12-23 16-20 12-16 10-44 24-27 14-34 16-33 15-21 9-27 12-30 14-26 12-23 12-26 15-16 10-17 12-21 16-10 9-9 9-7 6-9 11-10 12-10 15-12 21-6 13v2l4 1 8-4 12-13 6-7 10-8 6-6h2l1-3 11-9 17-13 24-16 20-13 22-13 16-8 19-10 16-8 31-15 23-10 15-7 23-10 57-26 35-17 9-5 21-11 16-9 14-8 24-16 17-13 14-9 10-8 28-24 5-4h2v-2h2l-1 6-8 10-11 15-22 28-11 13-7 9-13 14-5 7h-2l-2 4-15 15-7 8-16 16-8 7-34 34-8 7-15 16-5 6-5 4-7 8-11 14-5 7h-2l-2 5-10 14-10 17-10 19-8 17-7 20-5 17-5 22-3 21-2 21v35l1 3 2 1h9l30-10 27-12 48-24 24-14 25-14 19-13 21-14 18-14 13-10 17-14 10-9 8-7 10-11 7-8 2-3h2l2-4 6-8h2l2-4 9-11 16-20h7l18 5 1 1v6l-6 9-9 11-7 9-10 13-12 14-7 7-1 2h-2l-2 4-19 19-8 7-10 9-9 7-25 20-22 15-21 14-35 21-22 12-28 15-38 19-34 15-25 9-12 1-11-3-21-8-30-13-28-13-16-8-17-9-36-20-18-11-17-12-19-13-14-11-13-10-14-12-11-9-16-16-8-7-15-15v-2h-2l-7-8-7-7-7-9-13-17-9-13-2-3 1-4 19-8 5-2h5l6 7 7 9 12 16 11 13 8 9 6 1 2-4 3-13 7-18 5-12 8-16 15-28 11-17 12-16 11-14 9-10 4-5h2l2-4 15-14 10-9 19-14 10-7 20-12 14-8 27-12 21-8 20-6 18-5 13-2 13-3 31-7 28-6 36-10 29-9 33-11 28-12 33-16 27-15 16-10 22-14 17-13 12-10 9-7z" fill="#181818"/>
<path transform="translate(930,377)" d="m0 0h2l-2 5-13 14-7 8-9 9-9 11-15 15-8 7-12 11-10 9-17 13-16 12-23 16-20 12-16 10-44 24-27 14-34 16-33 15-21 9-27 12-30 14-26 12-23 12-26 15-16 10-17 12-21 16-10 9-9 9-7 6-9 11-10 12-10 15-12 21-7 15-3-2 2-6 12-25 10-15 8-11 11-13 12-13 15-14 14-11 20-15 22-14 14-8 16-9 23-12 29-14 33-15 40-18 25-11 28-13 25-12 20-10 22-12 28-16 18-11 25-17 11-8 12-9 11-9 10-8 10-9 8-7 8-8 8-7 14-15 15-16 3-3v-3l12-9z" fill="#FEFEFE"/>
<path transform="translate(875,484)" d="m0 0h2l-1 6-8 10-11 15-22 28-11 13-7 9-13 14-5 7h-2l-2 4-15 15-7 8-16 16-8 7-34 34-8 7-15 16-5 6-5 4-7 8-11 14-5 7h-2l-2 5-10 14-10 17-10 19-8 17-7 20-5 17-5 22-3 21-2 21v37l-4-2v-40l3-28 5-26 7-25 10-27 13-26 14-23 11-15 10-13 11-13 11-12 10-10 7-8 18-18 8-7 37-37 5-4 7-8 14-14 9-11 14-15 8-10 11-13 11-14 14-19 9-12 2-4 5-2z" fill="#fff"/>
<path transform="translate(948,725)" d="m0 0 3 1v6l-6 9-9 11-7 9-10 13-12 14-7 7-1 2h-2l-2 4-19 19-8 7-10 9-9 7-25 20-22 15-21 14-35 21-22 12-28 15-38 19-34 15-25 9-12 1-11-3-21-8-30-13-28-13-16-8-17-9-36-20-18-11-8-6h3l35 21 28 15 19 10 24 12 49 21 19 7 10 2 18-6 29-12 24-11 39-19 23-12 23-13 17-10 24-15 19-13 17-12 14-11 16-13 10-9 8-7 12-11 16-16 7-8 13-15 14-18 12-17z" fill="#fff"/>
<path transform="translate(550,229)" d="m0 0h13l1 2-90 9-41 6-34 6-45 10-26 7-46 14-33 12-20 7-25 9-12 4-1 5 5 13 11 25 11 23 14 30 11 23 11 24 8 18 7 15 13 27 16 36 12 25 10 23-1 3-14-31-8-16-16-36-7-14-12-27-7-14-7-15-11-24-13-28-13-27-15-33-9-21-1-6 7-3 23-8 44-16 38-13 34-10 40-10 46-9 48-7 46-5z" fill="#fff"/>
<path transform="translate(175,318)" d="m0 0 5 5-3 2-8 17-9 20-16 36-11 24-9 20-12 25-13 28-15 31-11 23-14 31-9 21-3 9-3-2 1-6 3-9 9-19 11-23 11-27 10-22 10-19 13-30 8-19 7-14 11-23 8-17 7-17 15-34 5-7z" fill="#EAEAEA"/>
<path transform="translate(998,321)" d="m0 0 4 1 4 3-1 2-4 1-19 38-6 14-8 15-11 23-6 12-9 20-8 16-7 16-10 19-14 30-8 16-13 28-6 12-9 20-1 5-2-1-1-5 5-12 20-41 11-23 8-17 1-5 7-15 11-23 6-13 9-19 9-16 14-30 6-15 2 1 9-20 8-16 8-20z" fill="#FCFCFC"/>
<path transform="translate(331,615)" d="m0 0h26l2 1-1 4-12 1-5 4-7 11-14 17-7 8-7 7-8 7-12 10-21 12-19 9-13 5-15 4-26 4h-25l-26-4-24-7-22-9-21-12-16-12-7-6h3l14 11 13 8 19 10 21 8 20 5 23 3h26l22-3 25-7 21-9 18-10 16-12 14-12 10-10 11-14 8-11 6-10h-10z" fill="#FCFCFC"/>
<path transform="translate(1153,615)" d="m0 0h27l3 2-1 4-15 3-13 18-11 14-11 12-8 8-17 13-17 10-20 8-17 4-32 4-13 1h-10l-21-2-20-3-18-6-16-7-18-10-15-10-5-6 4 2 11 8 16 10 17 8 22 7 19 3 16 1h23l26-2 20-4 18-6 16-8 15-10 14-11 11-10 7-8 10-12 7-10 7-11 15-1v-1l-26-1z" fill="#fff"/>
<path transform="translate(651,254)" d="m0 0 4 2v6l-3 5-2 1-9 1h-25l-1 224-5 3-20 4-15 5h-5l-1-1v-5l1 2 17-5 22-5h3v-222l1-3h25l10-3 3-6z" fill="#fff"/>
<path transform="translate(614,229)" d="m0 0 25 1 33 2 43 5 38 6 35 7 32 8 34 10 32 11 29 11 33 12 21 6 18 5 3 3-17-4-15-4-41-14-34-13-36-12-25-7-31-8-34-7-33-5-21-3-28-3-31-2-22-2h-5l-2 13-3-3 1-12z" fill="#fff"/>
<path transform="translate(1057,260)" d="m0 0h3l-1 8-8 19-8 11-8 7-10 6-13 5 2 6 8 14 6 16 19 42 15 33 13 27 11 23 17 37 13 29 12 23 10 21 7 17-1 4-7-17-14-29-12-24-13-28-9-20-12-26-8-16-15-32-12-27-6-12-14-32-8-18-6-12v-3l15-5 11-7 6-5 6-9 5-10 4-11v-4z" fill="#fff"/>
<path transform="translate(634,41)" d="m0 0 3 3 6 15v22l-5 9-7 5-10 4-12 2h-4l-1-2 21-6 8-5 4-5 2-7v-18l-4-13z" fill="#fff"/>
<path transform="translate(156,358)" d="m0 0 1 3-30 66-8 18-7 14-7 15-1-3 11-25 6-13 8-18 8-16 9-19 7-17z" fill="#4C4C4C"/>
<path transform="translate(907,511)" d="m0 0 1 2-17 35-12 25-13 27-1 3-3 1 1-5 32-64 11-23z" fill="#525252"/>
<path transform="translate(995,319)" d="m0 0 2 3-3 10-7 16-11 23-4 9h-1v-6l10-21 6-12 4-10 3-7z" fill="#555"/>
<path transform="translate(129,419)" d="m0 0 1 2-11 24-7 14-7 15-1-3 11-25 12-26z" fill="#484848"/>
<path transform="translate(942,437)" d="m0 0 1 3-7 14-9 20-10 20-1-4 15-30 5-12z" fill="#575757"/>
<path transform="translate(531,260)" d="m0 0 2 4 8 2h20l5 2v1h-28l-6-2z" fill="#fff"/>
<path transform="translate(547,90)" d="m0 0 8 4 13 3 4 3-10-1-12-4-3-3z" fill="#fff"/>
<path transform="translate(51,668)" d="m0 0 4 2 13 10 9 6 1 2-5-2-14-10-8-7z" fill="#fff"/>
<path transform="translate(995,319)" d="m0 0 2 3-3 10-2 5-4 3 1-5 5-11z" fill="#676767"/>
<path transform="translate(129,419)" d="m0 0 1 2-6 13-4 2 2-5 5-11z" fill="#474747"/>
<path transform="translate(156,358)" d="m0 0 1 3-6 14-3 1 2-6z" fill="#595959"/>
<path transform="translate(977,365)" d="m0 0 1 2-6 13h-1v-6l3-7z" fill="#4C4C4C"/>
<path transform="translate(827,616)" d="m0 0 2 2h7l7 3-2 1-12-1-2-1z" fill="#fff"/>
<path transform="translate(869,590)" d="m0 0 1 2-5 11-3 1 1-5 4-8z" fill="#646464"/>
</svg>
