<?xml version="1.0" encoding="UTF-8"?>
<svg version="1.1" viewBox="0 0 1236 1096" width="309" height="274" xmlns="http://www.w3.org/2000/svg">
<path transform="translate(0)" d="m0 0h1236v1096h-1236z" fill="#FEFEFE"/>
<path transform="translate(606,33)" d="m0 0 15 2 13 5 9 7 7 7 6 10 4 12 1 6v9l-2 9-5 8-7 5-16 5-7 2 13 7 11 11 7 12 6 17 33 4 33 6 24 6 30 9 31 11 29 12 26 12 34 17 23 13 25 14 21 11 25 10 11 3 13 1 15-3 16-8 21-13 8-4-1 9-7 21-8 14-9 9-12 7-13 4 2 5 13 29 15 33 19 41 13 29 8 16 11 24 14 30 19 40 15 30 7 18h25l10 2 3 5-4 4-3 1-12 1-6 10-12 16-12 13-13 13-20 15-16 9-16 7-19 5-21 3h-53l-20-3-20-6-21-9-18-11-13-10-10-9-8-7-9-10-14-19-5-8-15-1-5-3-1-3 2-3 7-2h22l10-19 32-64 11-23 21-43 11-23 13-27 15-33 13-28 13-31v-2l-30-8-32-11-47-18-40-13-33-9-41-9-34-6-39-5-31-3-47-3v15l26 1 8 3 4 4 1 6-5 6-5 2-14 1-15-1v55l-1 170-25 6-21 6-4-1v-235h-23l-9-2-6-5-1-5 3-6 5-3 3-1 28-1 1-15-53 4-46 5-53 8-40 8-40 10-37 11-38 13-49 18-20 7 1 5 9 21 13 28 16 34 18 38 15 33 16 35 16 34 14 30 16 35h26l9 2 2 2-1 5-4 2-12 1-8 12-14 18-14 15-8 7-17 13-17 10-21 10-15 5-23 5-19 2h-19l-24-3-21-5-19-7-21-10-18-12-10-8-10-9-14-14-9-11-12-14-9-10-3-4 1-1h20l14-1 17-37 11-24 7-15 13-28 7-15 16-34 15-33 14-31 7-15 17-37 10-22-1-3-17-9-10-8-8-10-8-16-8-24 3-1 10 11 14 9 11 5 10 3 7 1h17l16-3 15-5 29-14 25-13 22-12 39-19 29-13 27-11 34-12 26-8 28-7 27-5 26-3h8l3-12 8-16 9-10 14-9v-2l-10-3-13-4-8-7-4-10v-15l4-14 4-8 7-9 10-8 11-5z" fill="#151515"/>
<path transform="translate(954,382)" d="m0 0 2 2-6 9-11 14-12 14-12 13-31 31-8 7-10 9-27 21-17 12-15 10-22 14-26 15-22 12-29 15-27 13-36 16-24 11-25 11-33 15-28 13-38 20-22 13-18 12-19 14-11 9-10 9-8 7-12 12-9 11-10 13-12 19-9 19-3 7v3l12-12 7-8 11-11 8-7 12-11 14-11 13-10 16-11 22-14 26-15 28-15 37-18 29-13 63-28 33-15 39-19 23-12 20-11 17-10 24-15 17-12 19-14 16-13 11-9 14-12 8-7h2v-2l7-6h2l-2 5-15 23-13 18-14 18-18 22-12 14-10 11-7 8-5 6-60 60-8 7-26 26-3 4h-2l-2 4-9 9-7 8-12 15-13 18-12 19-14 27-7 16-10 30-5 21-4 25-2 20-1 40 21-6 28-11 26-12 44-22 48-28 24-16 17-12 13-10 14-11 14-12 10-9 12-11 11-11 7-8 9-10 11-14 10-13 8-12 2-1 19 7 10 4-1 6-7 11-13 17-11 14-9 10-7 8-14 15-9 9-8 7-14 13-14 11-16 13-34 24-19 12-25 15-23 13-42 22-27 13-32 14-26 10-9 3-7-1-27-10-38-16-15-7-38-19-39-22-23-15-21-14-18-13-14-11-16-13-14-12-16-15-13-12-14-14-7-8-13-14-11-14-11-15-7-10v-3l21-7 9-4 4 1 8 10 14 19 13 15 7 8 4 5 2 1 3-11 8-23 10-23 8-16 9-17 14-22 8-11 10-13 12-14 12-13 15-14 11-9 19-14 17-11 18-10 25-12 24-9 30-9 52-12 44-10 38-10 35-11 28-10 28-12 29-14 19-10 28-17 12-8 20-14 12-9 14-11z" fill="#151515"/>
<path transform="translate(1018,339)" d="m0 0 4 4 15 33 26 56 16 34 14 29 13 28 13 27 15 33 12 27 6 13v4l-270 1 1-4 13-28 8-17 8-16 14-29 10-22 8-16 15-31 11-23 24-50 16-33 7-19z" fill="#FEFEFE"/>
<path transform="translate(194,337)" d="m0 0h2l12 24 11 23 18 38 15 33 7 14 15 33 16 35 13 29 18 40 8 17v4h-266l1-5 32-70 8-18 8-16 17-36 19-41 15-32 18-41 11-26z" fill="#FEFEFE"/>
</svg>
